<?xml version="1.0" encoding="UTF-8"?>
<svg width="970px" height="213px" viewBox="0 0 970 213" version="1.1" xmlns="http://www.w3.org/2000/svg" xmlns:xlink="http://www.w3.org/1999/xlink">
    <title>Profile Picture</title>
    <defs>
        <linearGradient x1="50%" y1="0%" x2="50%" y2="100%" id="linearGradient-1">
            <stop stop-color="#64F7A0" offset="0%"></stop>
            <stop stop-color="#34EB67" offset="100%"></stop>
        </linearGradient>
        <linearGradient x1="50%" y1="0%" x2="50%" y2="100%" id="linearGradient-2">
            <stop stop-color="#64F7A0" offset="0%"></stop>
            <stop stop-color="#34EB67" offset="100%"></stop>
        </linearGradient>
        <linearGradient x1="50%" y1="0%" x2="50%" y2="100%" id="linearGradient-3">
            <stop stop-color="#64F7A0" offset="0%"></stop>
            <stop stop-color="#34EB67" offset="100%"></stop>
        </linearGradient>
    </defs>
    <g id="Page-1" stroke="none" stroke-width="1" fill="none" fill-rule="evenodd">
        <g id="Profile-Picture" transform="translate(-15.000000, -388.000000)">
            <text id="TCOMPUTING" fill="#000000" font-family="Montserrat-Bold, Montserrat" font-size="100" font-weight="bold">
                <tspan x="258" y="537">T</tspan>
                <tspan x="318.8" y="537">COMPUTING</tspan>
            </text>
            <g id="Group" transform="translate(27.000000, 409.000000)">
                <path d="M0.744021761,21.4415365 C56.1472681,-7.14717884 115.826346,-7.14717884 179.781255,21.4415365 C179.655778,22.0738427 193.098296,125.12851 90.2626386,182.996681 C90.3593609,183.329844 -7.08745854,133.765985 0.744021761,21.6757498 C0.750537405,21.6475279 0.750537405,21.5694568 0.744021761,21.4415365 Z" id="Path-2" stroke="url(#linearGradient-1)" stroke-width="6" fill="#03081A"></path>
                <g id="lock-outlined-padlock-symbol-for-security-interface_icon-icons.com_57803" transform="translate(61.796053, 39.000000)" fill-rule="nonzero">
                    <path d="M30.1624715,40.843624 C25.9839438,40.843624 22.7008929,43.6515564 22.7008929,47.2253735 C22.7008929,49.2675547 23.8947579,51.05453 25.6855555,52.3308265 L25.6855555,57.4362795 C25.6855555,59.4784607 27.7748974,61.265436 30.1626276,61.265436 C32.5503577,61.265436 34.6396996,59.4784607 34.6396996,57.4362795 L34.6396996,52.3308265 C36.4304972,51.05453 37.6243622,49.2675547 37.6243622,47.2253735 C37.6240501,43.6515564 34.3409992,40.843624 30.1624715,40.843624 Z M31.6547248,50.7993241 L31.6547248,57.436413 C31.6547248,58.2021642 31.0577923,58.7127095 30.1624715,58.7127095 C29.2671507,58.7127095 28.6702182,58.2021642 28.6702182,57.436413 L28.6702182,50.7993241 C26.8794206,50.2887788 25.6855555,48.7570094 25.6855555,47.225507 C25.6855555,45.1833258 27.7748974,43.3963505 30.1626276,43.3963505 C32.5503577,43.3963505 34.6396996,45.1833258 34.6396996,47.225507 C34.6393875,49.0123488 33.4455224,50.2887788 31.6547248,50.7993241 Z" id="Shape" fill="url(#linearGradient-2)"></path>
                    <path d="M49.8870262,29.7142767 L49.8870262,20.2596635 C49.8870262,9.1844128 40.4639213,0 29.1008378,0 C17.7376093,0 8.31450437,9.1844128 8.31450437,20.2598047 L8.31450437,29.714418 C3.60287944,29.714418 0,33.2260346 0,37.8183116 L0,64.8311492 C0,69.4234262 3.60287944,72.9350428 8.31450437,72.9350428 L49.8870262,72.9350428 C54.5986512,72.9350428 58.2015306,69.4234262 58.2015306,64.8311492 L58.2015306,37.8181704 C58.2015306,33.4960938 54.5986512,29.7142767 49.8870262,29.7142767 Z M11.0860058,20.2598047 C11.0860058,10.5351324 19.1232876,2.70143913 29.1006928,2.70143913 C39.0780981,2.70143913 47.1153799,10.5351324 47.1153799,20.2598047 L47.1153799,29.714418 L44.3438784,29.714418 L44.3438784,20.2598047 C44.3438784,12.1559111 37.4151972,5.40259577 29.1005479,5.40259577 C20.7858986,5.40259577 13.8575073,12.1557699 13.8575073,20.2598047 L13.8575073,29.714418 L11.0860058,29.714418 L11.0860058,20.2598047 Z M41.5725219,20.2598047 L41.5725219,29.714418 L16.6290087,29.714418 L16.6290087,20.2598047 C16.6290087,13.5066307 22.1720117,8.10403489 29.1006928,8.10403489 C36.029374,8.10403489 41.5725219,13.5064894 41.5725219,20.2598047 Z M55.4300292,64.8311492 C55.4300292,67.8025062 52.9356054,70.233745 49.8870262,70.233745 L8.31450437,70.233745 C5.26578031,70.233745 2.77150146,67.8025062 2.77150146,64.8311492 L2.77150146,37.8181704 C2.77150146,34.8466721 5.26578031,32.4155746 8.31450437,32.4155746 L49.8870262,32.4155746 C52.9356054,32.4155746 55.4300292,34.8466721 55.4300292,37.8181704 L55.4300292,64.8311492 Z" id="Shape" fill="url(#linearGradient-3)"></path>
                </g>
            </g>
        </g>
    </g>
</svg>