<?xml version="1.0" encoding="UTF-8"?>
<svg width="480px" height="486px" viewBox="0 0 480 486" version="1.1" xmlns="http://www.w3.org/2000/svg" xmlns:xlink="http://www.w3.org/1999/xlink">
    <title>Slice</title>
    <g id="Page-1" stroke="none" stroke-width="1" fill="none" fill-rule="evenodd">
        <circle id="Oval" stroke="#979797" fill="#FFFFFF" cx="240" cy="240" r="239.5"></circle>
        <g id="Group" transform="translate(74.000000, 95.000000)" fill="#000000">
            <path d="M49.2885518,78.6514458 C45.4109692,63.2129224 44.9944245,49.0338825 48.0389179,36.1143262 C48.4964498,36.0552283 49.9300496,14.0917919 76.290558,3.46847373 C76.7356983,4.17288218 90.6065397,-4.67654683 121.679626,3.46847373 C122.017056,3.8268737 140.063829,8.28685629 149.779709,36.1143262 C149.789241,36.8292197 156.035504,51.0117547 147.969598,78.6514458 C147.821854,79.1289947 162.420933,96.5981336 142.05028,113.605928 C141.879659,114.361809 142.444901,126.900088 126.951728,148.203916 C127.048,148.709108 117.01972,186.864407 166.305788,203.312677 C166.305788,203.312677 233.561421,226.785969 229.447447,244.681184 C229.470323,244.854665 229.470323,260.159742 229.447447,290.596414 L0,290.596414 L0,224.421101 C3.26371233,214.560018 13.8006003,207.523877 31.610664,203.312677 C31.3228002,203.318397 77.3009408,188.939504 70.0929074,148.203916 C70.1710691,148.265874 58.427751,137.674011 55.1640236,113.605928 C55.2138884,113.745074 46.1277691,109.968549 44.5607224,94.0683636 C43.7882141,86.2300352 45.3641572,81.0910626 49.2885518,78.6514458 Z" id="Path"></path>
            <path d="M196.926924,184.844392 C206.247749,176.455783 210.117514,165.623111 208.536219,152.346377 C208.841727,152.931349 199.272823,146.260262 199.272823,127.688393 C199.019401,128.050996 182.414803,116.277427 192.963336,101.661134 C192.54464,102.51355 187.688568,88.1907446 190.325952,73.5484077 C190.332964,72.815189 194.176352,47.4019498 219.006622,42.9124879 C218.862382,42.6099851 249.370089,35.084477 264.021441,58.7217644 C264.600403,60.3304382 267.553311,63.729087 269.895204,75.0909715 C269.761648,75.0809549 268.806728,83.9376756 267.030442,101.661134 C271.138604,109.046743 269.56599,117.118158 262.312601,125.87538 C262.099246,126.395244 263.670858,135.497373 251.529678,152.346377 C251.604803,153.144704 247.6322,172.907552 262.312601,184.844392 C262.549995,185.148898 324.057477,209.979066 328.808374,223.794028 C328.608041,224.182006 329.308455,246.449468 330.909615,290.596414 L255.985084,290.596414 L255.985084,232.008784 C252.530346,216.516999 233.293875,201.602331 198.275672,187.26478 C198.399878,187.243411 197.950295,186.436615 196.926924,184.844392 Z" id="Path-2"></path>
        </g>
    </g>
</svg>