<?xml version="1.0" encoding="UTF-8"?>
<svg width="480px" height="480px" viewBox="0 0 480 480" version="1.1" xmlns="http://www.w3.org/2000/svg" xmlns:xlink="http://www.w3.org/1999/xlink">
    <title>Slice</title>
    <g id="Page-1" stroke="none" stroke-width="1" fill="none" fill-rule="evenodd">
        <circle id="Oval" stroke="#979797" fill="#FFFFFF" cx="240" cy="240" r="239.5"></circle>
        <g id="Path-2" transform="translate(101.000000, 72.000000)" fill="#000000">
            <path d="M74.6602004,82.0591695 C67.3239642,54.766382 71.5073817,34.2726837 87.2104529,20.5780748 C87.7076717,21.0120111 105.830772,0 122.515242,0 C122.045144,1.50521667 161.553692,-4.81624133 195.51147,26.5831209 C194.982611,26.8746718 210.504875,38.1863977 202.743743,82.0591695 C202.788944,82.9293023 211.275564,97.4978108 199.328754,115.671155 C198.549025,117.036246 186.662021,177.663029 139.199712,180.637301 C138.943801,180.576279 89.655865,178.675547 78.3373589,115.671155 C79.2820744,116.163854 65.0001775,98.9643547 73.975337,83.3627297 C73.8816187,83.4690609 74.1099065,83.0345408 74.6602004,82.0591695 Z" id="Path"></path>
            <path d="M0.527898705,308.08083 C2.17625462,247.651639 12.813602,210.328046 32.4399409,196.110051 C32.9237213,196.244746 61.8793702,188.325139 88.6188747,171.125045 C88.5053831,171.667358 90.9053567,173.191 95.8187955,175.69597 L95.8187955,219.174806 L132.915258,319.063385 C137.237453,325.101546 140.874961,325.101546 143.827781,319.063385 C143.989524,319.258428 157.0047,285.962235 182.873309,219.174806 L182.873309,175.69597 L188.905014,171.125045 C219.303093,187.781716 238.176339,196.110051 245.52475,196.110051 C245.617514,196.595415 277.403685,227.437837 277.403685,308.08083 C278.291782,309.378863 273.835284,325.333507 258.59897,325.333507 C258.522925,325.697722 98.7974861,355.003804 5.33144067,319.063385 C5.73967604,319.841852 4.13849539,316.181 0.527898705,308.08083 Z" id="Path-3"></path>
            <path d="M122.03799,189.979345 C132.904149,192.991584 144.052223,193.274583 155.482213,190.828343 C155.181278,191.066684 150.425664,198.523249 141.21537,213.19804 L154.796804,227.061872 L139.019664,313.365316 L122.79129,227.061872 L136.325779,213.19804 L122.03799,189.979345 Z" id="Path-4"></path>
        </g>
    </g>
</svg>